name kv01_filtered_grf.mot
datacolumns 37
datarows 7
range 1.416500 1.419500
endheader
time	1_ground_force_vx	1_ground_force_vy	1_ground_force_vz	1_ground_force_px	1_ground_force_py	1_ground_force_pz	1_ground_torque_x	1_ground_torque_y	1_ground_torque_z	2_ground_force_vx	2_ground_force_vy	2_ground_force_vz	2_ground_force_px	2_ground_force_py	2_ground_force_pz	2_ground_torque_x	2_ground_torque_y	2_ground_torque_z	3_ground_force_vx	3_ground_force_vy	3_ground_force_vz	3_ground_force_px	3_ground_force_py	3_ground_force_pz	3_ground_torque_x	3_ground_torque_y	3_ground_torque_z	4_ground_force_vx	4_ground_force_vy	4_ground_force_vz	4_ground_force_px	4_ground_force_py	4_ground_force_pz	4_ground_torque_x	4_ground_torque_y	4_ground_torque_z
            1.416500	          -26.819458	          471.278772	           53.017230	            0.144542	            0.000000	            0.149803	           -0.694060	           12.196203	            1.372031	           20.349197	          273.635453	           -4.284635	           -0.103932	            0.000000	            0.179513	            0.240135	            3.229087	           -0.050562	           -1.014015	            0.340722	           -0.385997	            0.386852	            0.970380	            1.075546	            0.006512	            0.000385	            0.002077	            0.681210	            0.822110	            0.021362	           -0.368993	            0.969406	            1.108041	            0.007207	            0.010476	            0.020313
            1.417000	          -26.826669	          470.747483	           52.792420	            0.144564	            0.000000	            0.149795	           -0.694026	           12.178595	            1.365780	           20.378042	          272.671652	           -4.282721	           -0.103927	            0.000000	            0.179414	            0.241998	            3.238088	           -0.050859	           -1.027606	            0.340404	           -0.384738	            0.386861	            0.970382	            1.075547	            0.006344	            0.000506	            0.002196	            0.682424	            0.807250	            0.026118	           -0.368988	            0.969406	            1.108040	            0.007037	            0.010089	            0.020194
            1.417500	          -26.834054	          470.221323	           52.571192	            0.144584	            0.000000	            0.149788	           -0.694000	           12.161169	            1.359630	           20.407335	          271.707882	           -4.281533	           -0.103923	            0.000000	            0.179315	            0.243877	            3.247031	           -0.051166	           -1.040661	            0.339819	           -0.383361	            0.386870	            0.970385	            1.075548	            0.006175	            0.000658	            0.002301	            0.682939	            0.791367	            0.031025	           -0.368984	            0.969405	            1.108039	            0.006862	            0.009708	            0.020040
            1.418000	          -26.841676	          469.699685	           52.353786	            0.144605	            0.000000	            0.149781	           -0.693981	           12.143905	            1.353587	           20.437004	          270.744018	           -4.281028	           -0.103918	            0.000000	            0.179217	            0.245771	            3.255912	           -0.051483	           -1.053160	            0.338966	           -0.381887	            0.386878	            0.970387	            1.075549	            0.006007	            0.000839	            0.002393	            0.682757	            0.774526	            0.036070	           -0.368980	            0.969406	            1.108039	            0.006684	            0.009335	            0.019852
            1.418500	          -26.849599	          469.181957	           52.140417	            0.144625	            0.000000	            0.149773	           -0.693972	           12.126785	            1.347655	           20.466979	          269.779945	           -4.281163	           -0.103914	            0.000000	            0.179119	            0.247680	            3.264726	           -0.051808	           -1.065084	            0.337851	           -0.380342	            0.386886	            0.970389	            1.075550	            0.005838	            0.001049	            0.002471	            0.681884	            0.756791	            0.041208	           -0.368975	            0.969407	            1.108040	            0.006502	            0.008969	            0.019630
            1.419000	          -26.857887	          468.667525	           51.931275	            0.144645	            0.000000	            0.149764	           -0.693975	           12.109790	            1.341840	           20.497192	          268.815558	           -4.281895	           -0.103910	            0.000000	            0.179022	            0.249602	            3.273468	           -0.052142	           -1.076415	            0.336479	           -0.378749	            0.386895	            0.970391	            1.075551	            0.005669	            0.001288	            0.002537	            0.680328	            0.738227	            0.046410	           -0.368971	            0.969408	            1.108040	            0.006317	            0.008612	            0.019373
            1.419500	          -26.866600	          468.155767	           51.726525	            0.144665	            0.000000	            0.149756	           -0.693989	           12.092902	            1.336145	           20.527575	          267.850760	           -4.283180	           -0.103906	            0.000000	            0.178925	            0.251537	            3.282135	           -0.052484	           -1.087138	            0.334860	           -0.377132	            0.386903	            0.970393	            1.075552	            0.005500	            0.001553	            0.002589	            0.678096	            0.718900	            0.051645	           -0.368966	            0.969410	            1.108040	            0.006130	            0.008263	            0.019083
